<svg width="36" height="36" viewBox="0 0 36 36" fill="none" xmlns="http://www.w3.org/2000/svg">
<path d="M20.6729 29.1172C20.1289 28.5731 20.1289 27.691 20.6729 27.1469L23.7688 24.0511C24.3128 23.507 25.195 23.507 25.739 24.0511L28.8349 27.1469C29.3789 27.691 29.3789 28.5731 28.8349 29.1172L25.739 32.213C25.195 32.7571 24.3128 32.7571 23.7688 32.213L20.6729 29.1172Z" fill="white"/>
<path d="M27.4286 22.3623C26.8845 21.8182 26.8845 20.9361 27.4286 20.3921L30.5244 17.2962C31.0685 16.7522 31.9506 16.7522 32.4946 17.2962L35.5905 20.3921C36.1345 20.9361 36.1345 21.8182 35.5905 22.3623L32.4946 25.4581C31.9506 26.0022 31.0685 26.0022 30.5244 25.4581L27.4286 22.3623Z" fill="white"/>
<path d="M20.6729 15.6079C20.1289 15.0639 20.1289 14.1817 20.6729 13.6377L23.7688 10.5418C24.3128 9.99777 25.195 9.99777 25.739 10.5418L28.8349 13.6377C29.3789 14.1817 29.3789 15.0639 28.8349 15.6079L25.739 18.7037C25.195 19.2478 24.3128 19.2478 23.7688 18.7037L20.6729 15.6079Z" fill="white"/>
<path opacity="0.2" d="M13.9177 8.85305C13.3736 8.30897 13.3736 7.42685 13.9177 6.88278L17.0135 3.78696C17.5576 3.24289 18.4397 3.24289 18.9838 3.78696L22.0796 6.88278C22.6237 7.42685 22.6237 8.30897 22.0796 8.85305L18.9838 11.9489C18.4397 12.4929 17.5576 12.4929 17.0135 11.9489L13.9177 8.85305Z" fill="#F2F4F7"/>
<path opacity="0.2" d="M0.408177 22.3622C-0.135897 21.8181 -0.135896 20.936 0.408178 20.392L10.2588 10.5414C10.8029 9.99728 11.685 9.99728 12.229 10.5414L22.0796 20.392C22.6237 20.936 22.6237 21.8181 22.0796 22.3622L12.229 32.2128C11.685 32.7569 10.8029 32.7569 10.2588 32.2128L0.408177 22.3622Z" fill="#F2F4F7"/>
</svg>
