<svg width="20" height="20" viewBox="0 0 20 20" fill="none" xmlns="http://www.w3.org/2000/svg">
<g clip-path="url(#clip0_198_519)">
<rect width="20" height="20" rx="4" fill="#E478FA" fill-opacity="0.15"/>
<path d="M15.9906 8.93906L15.3674 12.9893C15.3134 13.3405 15.0112 13.5998 14.6558 13.5999H5.82317C5.4678 13.5998 5.16559 13.3405 5.11157 12.9893L4.48844 8.93906C4.45629 8.73092 4.5167 8.51914 4.65381 8.35928C4.79091 8.19942 4.99102 8.10745 5.20162 8.1075C5.33942 8.10799 5.47411 8.1484 5.58941 8.22386L7.59951 9.51986L9.86439 6.6701C10.0079 6.49075 10.2283 6.39062 10.4578 6.40058C10.6873 6.41054 10.8982 6.52939 11.0257 6.7205L12.8795 9.51986L14.8896 8.22386C15.0049 8.14845 15.1396 8.10807 15.2773 8.1076C15.4879 8.10757 15.688 8.19953 15.8251 8.35935C15.9622 8.51918 16.0226 8.73093 15.9906 8.93906Z" fill="#E478FA"/>
</g>
<defs>
<clipPath id="clip0_198_519">
<rect width="20" height="20" rx="4" fill="white"/>
</clipPath>
</defs>
</svg>
