<svg width="28" height="28" viewBox="0 0 28 28" fill="none" xmlns="http://www.w3.org/2000/svg">
<path fill-rule="evenodd" clip-rule="evenodd" d="M3.35999 7.27997C3.35999 6.97069 3.61071 6.71997 3.91999 6.71997H24.08C24.3893 6.71997 24.64 6.97069 24.64 7.27997C24.64 7.58925 24.3893 7.83997 24.08 7.83997H3.91999C3.61071 7.83997 3.35999 7.58925 3.35999 7.27997ZM24.08 13.44H3.91999C3.61071 13.44 3.35999 13.6907 3.35999 14C3.35999 14.3093 3.61071 14.56 3.91999 14.56H24.08C24.3893 14.56 24.64 14.3093 24.64 14C24.64 13.6907 24.3893 13.44 24.08 13.44ZM3.91999 20.16H24.08C24.3893 20.16 24.64 20.4107 24.64 20.72C24.64 21.0293 24.3893 21.28 24.08 21.28H3.91999C3.61071 21.28 3.35999 21.0293 3.35999 20.72C3.35999 20.4107 3.61071 20.16 3.91999 20.16Z" fill="white"/>
</svg>
